<svg width="39" height="86" viewBox="0 0 39 86" fill="none" xmlns="http://www.w3.org/2000/svg">
<path d="M23.4155 15.8733L23.4155 81.8305C23.4155 84.1333 21.5488 86 19.246 86C16.9433 86 15.0766 84.1333 15.0766 81.8305L15.0766 15.8733L8.34509 24.1701L8.33986 59.888C8.33986 62.1697 6.47501 64.0157 4.16993 64.0157C1.86495 64.0157 7.62939e-06 62.1697 7.62939e-06 59.888V22.7179C7.62939e-06 21.7742 0.324883 20.8615 0.916794 20.1251L15.993 1.54012C16.0401 1.48827 16.1082 1.46752 16.1554 1.41567C16.4278 1.10972 16.7579 0.876365 17.114 0.663749C17.2608 0.575596 17.3759 0.451142 17.5331 0.383729C18.0569 0.145205 18.6279 0 19.246 0C19.8642 0 20.4352 0.150378 20.9485 0.388916C21.1057 0.461517 21.2209 0.580793 21.3676 0.668946C21.7238 0.881562 22.0539 1.11491 22.3262 1.42085C22.3734 1.47271 22.4467 1.49345 22.4887 1.54531L37.5648 20.1304C38.162 20.8616 38.4868 21.7742 38.4868 22.7179V59.888C38.4868 62.1698 36.6219 64.0157 34.3169 64.0157C32.012 64.0157 30.147 62.1698 30.147 59.888L30.147 24.1702L23.4155 15.8733Z" fill="white"/>
</svg>
